<svg xmlns="http://www.w3.org/2000/svg" viewBox="0 0 100 100">
  <path d="M 55.97 86.01 L 47.75 86.01 L 39.14 85.03 L 32.68 83.27 L 26.61 80.33 L 22.90 77.59 L 19.47 73.78 L 16.93 68.88 L 13.01 58.71 L 12.43 55.19 L 12.62 47.75 L 16.54 29.94 L 18.10 27.79 L 26.81 19.67 L 30.72 17.32 L 36.99 14.97 L 43.25 13.99 L 52.45 14.38 L 60.67 16.14 L 70.84 20.45 L 76.91 24.76 L 81.31 29.35 L 84.05 33.46 L 86.59 39.92 L 87.57 45.79 L 87.38 53.03 L 86.01 59.69 L 82.88 67.71 L 75.83 77.89 L 71.62 81.90 L 64.97 85.03 L 55.97 86.01 Z M 51.57 81.21 L 56.75 80.53 L 64.19 78.38 L 72.99 73.48 L 76.42 70.25 L 79.94 65.36 L 84.05 54.79 L 84.05 52.45 L 80.92 38.55 L 79.35 34.44 L 76.61 29.75 L 72.41 25.34 L 65.56 19.67 L 61.45 17.91 L 55.58 16.93 L 47.95 17.51 L 40.31 19.67 L 25.83 26.91 L 22.21 30.53 L 19.86 34.64 L 17.32 46.77 L 17.32 53.03 L 18.88 61.06 L 21.23 66.73 L 25.54 72.80 L 31.31 77.40 L 37.77 80.14 L 44.03 81.31 L 51.57 81.21 Z M 52.05 76.81 L 47.36 76.42 L 41.88 75.05 L 35.03 70.94 L 31.60 67.12 L 28.67 62.23 L 26.52 56.95 L 25.15 50.68 L 24.95 47.36 L 25.73 41.29 L 27.69 36.40 L 30.23 32.88 L 34.64 29.06 L 38.94 26.71 L 47.36 24.36 L 57.14 24.56 L 60.86 25.73 L 63.41 27.30 L 66.24 30.14 L 71.92 38.16 L 74.85 44.23 L 76.22 49.71 L 76.42 52.84 L 75.64 57.53 L 69.96 66.93 L 63.99 71.72 L 52.05 76.81 Z M 52.35 73.19 L 61.45 69.57 L 68.20 63.60 L 72.11 56.56 L 72.90 52.45 L 72.70 48.34 L 71.72 44.62 L 69.37 39.92 L 66.05 35.62 L 61.84 31.80 L 58.32 29.45 L 54.21 27.69 L 49.51 26.91 L 45.99 27.10 L 38.36 29.45 L 31.21 37.18 L 27.89 43.44 L 26.71 53.62 L 28.86 59.49 L 34.83 66.05 L 45.21 72.31 L 48.53 73.29 L 52.35 73.19 Z M 54.60 65.66 L 47.16 65.07 L 42.07 63.50 L 38.75 61.55 L 35.32 57.34 L 33.95 51.66 L 34.74 45.60 L 37.67 38.94 L 43.64 35.13 L 49.12 34.34 L 55.38 35.91 L 60.47 38.85 L 63.31 41.68 L 65.46 45.60 L 66.05 50.88 L 63.70 57.93 L 58.32 63.89 L 54.60 65.66 Z M 52.74 63.01 L 58.51 61.15 L 61.15 58.90 L 62.92 56.36 L 63.89 54.40 L 63.89 48.53 L 62.72 43.64 L 58.51 38.26 L 55.19 36.69 L 50.29 36.30 L 42.27 38.26 L 38.85 40.90 L 36.50 46.38 L 36.11 51.86 L 36.89 55.38 L 38.65 58.51 L 43.64 62.13 L 47.36 63.11 L 52.74 63.01 Z M 52.05 58.22 L 45.40 56.85 L 42.76 54.60 L 41.98 52.64 L 41.78 48.53 L 43.35 44.62 L 47.55 41.98 L 50.68 41.98 L 54.60 43.54 L 57.05 45.79 L 58.22 48.14 L 58.22 51.47 L 56.85 54.60 L 54.60 57.05 L 52.05 58.22 Z M 51.76 56.36 L 54.01 55.68 L 56.26 53.42 L 56.85 52.25 L 56.46 47.16 L 54.40 44.32 L 52.45 43.35 L 49.12 43.35 L 46.18 44.13 L 44.52 45.40 L 43.35 48.14 L 43.54 52.84 L 45.01 54.89 L 46.97 56.07 L 51.76 56.36 Z" fill="#000" fill-rule="evenodd"/>
</svg>
